<svg xmlns="http://www.w3.org/2000/svg" width="1900" height="1000" viewBox="0 0 1900 1000" role="img" aria-label="美国国旗">
  <rect width="1900" height="1000" fill="#fff"/>
  <g fill="#b22234">
    <rect width="1900" height="76.923" y="0"/>
    <rect width="1900" height="76.923" y="153.846"/>
    <rect width="1900" height="76.923" y="307.692"/>
    <rect width="1900" height="76.923" y="461.538"/>
    <rect width="1900" height="76.923" y="615.385"/>
    <rect width="1900" height="76.923" y="769.231"/>
    <rect width="1900" height="76.923" y="923.077"/>
  </g>
  <rect width="760" height="538.462" fill="#3c3b6e"/>
  <defs>
    <path id="star" d="M0-1 .2245-.309 .9511-.309 .3633.118 .5878.809 0 .382-.5878.809-.3633.118-.9511-.309-.2245-.309Z"/>
    <g id="row-six" fill="#fff">
      <use href="#star" transform="translate(63.333 0) scale(30.8)"/>
      <use href="#star" transform="translate(190 0) scale(30.8)"/>
      <use href="#star" transform="translate(316.667 0) scale(30.8)"/>
      <use href="#star" transform="translate(443.333 0) scale(30.8)"/>
      <use href="#star" transform="translate(570 0) scale(30.8)"/>
      <use href="#star" transform="translate(696.667 0) scale(30.8)"/>
    </g>
    <g id="row-five" fill="#fff">
      <use href="#star" transform="translate(126.667 0) scale(30.8)"/>
      <use href="#star" transform="translate(253.333 0) scale(30.8)"/>
      <use href="#star" transform="translate(380 0) scale(30.8)"/>
      <use href="#star" transform="translate(506.667 0) scale(30.8)"/>
      <use href="#star" transform="translate(633.333 0) scale(30.8)"/>
    </g>
  </defs>
  <use href="#row-six" transform="translate(0 53.846)"/>
  <use href="#row-five" transform="translate(0 107.692)"/>
  <use href="#row-six" transform="translate(0 161.538)"/>
  <use href="#row-five" transform="translate(0 215.385)"/>
  <use href="#row-six" transform="translate(0 269.231)"/>
  <use href="#row-five" transform="translate(0 323.077)"/>
  <use href="#row-six" transform="translate(0 376.923)"/>
  <use href="#row-five" transform="translate(0 430.769)"/>
  <use href="#row-six" transform="translate(0 484.615)"/>
</svg>
